<?xml version="1.0" encoding="UTF-8" standalone="no"?>
<svg
   height="512"
   id="svg1"
   version="1.1"
   viewBox="0 0 512 512"
   width="512"
   xml:space="preserve"
   xmlns="http://www.w3.org/2000/svg"
   xmlns:svg="http://www.w3.org/2000/svg"><defs
   id="defs1" />
    <g
   style="fill:#ffffff;fill-opacity:1"
   id="g1"
   transform="matrix(0.29233792,0,0,0.29233792,115.72652,399.09941)"><path
     d="m 280,-160 q -33,0 -56.5,-23.5 Q 200,-207 200,-240 v -286 l -80,61 q -14,10 -30,8.5 -16,-1.5 -26,-15.5 -10,-14 -8,-30 2,-16 16,-26 l 359,-275 q 11,-8 23.5,-12 12.5,-4 25.5,-4 13,0 25.5,4 12.5,4 23.5,12 l 111,85 v -22 q 0,-25 17.5,-42.5 17.5,-17.5 42.5,-17.5 25,0 42.5,17.5 17.5,17.5 17.5,42.5 v 114 l 128,98 q 13,10 15.5,26 2.5,16 -7.5,30 -10,14 -26,15.5 -16,1.5 -30,-8.5 l -80,-61 v 286 q 0,33 -23.5,56.5 Q 713,-160 680,-160 h -40 q -33,0 -56.5,-23.5 Q 560,-207 560,-240 v -80 q 0,-33 -23.5,-56.5 Q 513,-400 480,-400 q -33,0 -56.5,23.5 Q 400,-353 400,-320 v 80 q 0,33 -23.5,56.5 Q 353,-160 320,-160 Z m 120,-399 h 160 q 0,-32 -24,-52.5 -24,-20.5 -56,-20.5 -32,0 -56,20.5 -24,20.5 -24,52.5 z"
     id="path1-2"
     style="fill:#ffffff;fill-opacity:1" /></g></svg>
